<?xml version="1.0" encoding="utf-8"?>
<!-- Generator: Adobe Illustrator 18.0.0, SVG Export Plug-In . SVG Version: 6.00 Build 0)  -->
<!DOCTYPE svg PUBLIC "-//W3C//DTD SVG 1.1//EN" "http://www.w3.org/Graphics/SVG/1.1/DTD/svg11.dtd">
<svg version="1.1" id="Слой_1" xmlns="http://www.w3.org/2000/svg" xmlns:xlink="http://www.w3.org/1999/xlink" x="0px" y="0px"
	 viewBox="0 0 116.7 84.1" enable-background="new 0 0 116.7 84.1" xml:space="preserve">
<g>
	<g>
		<path fill="#D9272E" d="M34.6,29.9c2.3,0,4,1.7,4,4c0,2.3-1.7,4.1-4,4.1c-2.3,0-4-1.8-4-4.1C30.6,31.6,32.3,29.9,34.6,29.9
			 M34.6,36.6c1.4,0,2.6-1.2,2.6-2.8c0-1.5-1.1-2.7-2.6-2.7c-1.4,0-2.6,1.2-2.6,2.7C32,35.4,33.2,36.6,34.6,36.6"/>
		<rect x="51.2" y="30" fill="#4E4E50" width="1.4" height="7.8"/>
		<polygon fill="#4E4E50" points="57.1,30 55.6,30 53,33.7 55.8,37.8 57.5,37.8 54.5,33.7 		"/>
		<rect x="88.5" y="30" fill="#4E4E50" width="1.4" height="7.8"/>
		<polygon fill="#4E4E50" points="94.4,30 92.9,30 90.3,33.7 93.1,37.8 94.8,37.8 91.8,33.7 		"/>
		<rect x="75.6" y="45.6" fill="#4E4E50" width="1.4" height="7.8"/>
		<polygon fill="#4E4E50" points="81.4,45.6 79.9,45.6 77.3,49.4 80.1,53.4 81.8,53.4 78.8,49.3 		"/>
		<path fill="#4E4E50" d="M20.3,30h1.5l1.5,3.9c0.2,0.5,0.4,1.1,0.4,1.1h0c0,0,0.2-0.7,0.4-1.1l1.5-3.9h1.5l0.6,7.8h-1.4L26,33.4
			c0-0.5,0-1.2,0-1.2h0c0,0-0.3,0.8-0.4,1.2l-1.3,3h-1.2l-1.3-3c-0.2-0.5-0.4-1.2-0.4-1.2h0c0,0,0,0.7,0,1.2L21,37.8h-1.4L20.3,30z"
			/>
		<path fill="#4E4E50" d="M45.3,29.9c1,0,2.1,0.3,2.9,1.1L47.5,32c-0.6-0.5-1.4-0.8-2.1-0.8c-1.7,0-2.6,1.2-2.6,2.7
			c0,1.5,0.9,2.8,2.6,2.8c0.8,0,1.7-0.4,2.3-1l0.7,1c-0.7,0.7-1.7,1.3-3.1,1.3c-2.5,0-4-1.8-4-4.1C41.3,31.6,42.9,29.9,45.3,29.9"/>
		<path fill="#4E4E50" d="M63.3,29.9c2.3,0,4,1.7,4,4c0,2.3-1.7,4.1-4,4.1c-2.3,0-4-1.8-4-4.1C59.2,31.6,61,29.9,63.3,29.9
			 M63.3,36.6c1.4,0,2.6-1.2,2.6-2.8c0-1.5-1.1-2.7-2.6-2.7c-1.4,0-2.6,1.2-2.6,2.7C60.7,35.4,61.9,36.6,63.3,36.6"/>
		<path fill="#4E4E50" d="M70.4,30h2.8c1.4,0,2.4,0.7,2.4,2c0,0.7-0.4,1.4-0.9,1.7v0c0.9,0.2,1.3,1,1.3,1.8c0,1.6-1.3,2.3-2.7,2.3
			h-2.8V30z M73.2,33.2c0.6,0,1-0.4,1-1c0-0.6-0.3-1-1-1h-1.4v2H73.2z M73.3,36.6c0.7,0,1.1-0.5,1.1-1.1c0-0.6-0.4-1.1-1.1-1.1h-1.5
			v2.3H73.3z"/>
		<path fill="#4E4E50" d="M82.6,29.9c1,0,2.1,0.3,2.9,1.1L84.8,32c-0.5-0.5-1.4-0.8-2.1-0.8c-1.7,0-2.6,1.2-2.6,2.7
			c0,1.5,0.9,2.8,2.6,2.8c0.8,0,1.7-0.4,2.3-1l0.7,1c-0.7,0.7-1.7,1.3-3.1,1.3c-2.5,0-4-1.8-4-4.1C78.6,31.6,80.2,29.9,82.6,29.9"/>
		<path fill="#4E4E50" d="M97.2,30h1.4v4.5c0,0.5-0.1,1.2-0.1,1.2h0c0,0,0.4-0.8,0.7-1.2l3-4.5h1.4v7.8h-1.4v-4.5
			c0-0.5,0.1-1.2,0.1-1.2h0c0,0-0.4,0.7-0.6,1.2l-3,4.5h-1.4V30z"/>
		<path fill="#4E4E50" d="M107.1,30h1.4v4.5c0,0.5-0.1,1.2-0.1,1.2h0c0,0,0.4-0.8,0.7-1.2l3-4.5h1.4v7.8h-1.4v-4.5
			c0-0.5,0.1-1.2,0.1-1.2h0c0,0-0.4,0.7-0.7,1.2l-3,4.5h-1.4V30z M108.6,28.1V28h1.1v0.1c0,0.5,0.4,0.7,0.7,0.7s0.7-0.2,0.7-0.7V28
			h1.1v0.1c0,1-0.8,1.5-1.8,1.5S108.6,29.1,108.6,28.1"/>
		<polygon fill="#4E4E50" points="19.9,45.6 24.4,45.6 24.4,46.8 21.3,46.8 21.3,53.4 19.9,53.4 		"/>
		<path fill="#4E4E50" d="M30.4,45.5c2.3,0,4,1.8,4,4c0,2.3-1.7,4.1-4,4.1s-4-1.8-4-4.1C26.4,47.2,28.1,45.5,30.4,45.5 M30.4,52.3
			c1.4,0,2.6-1.2,2.6-2.8c0-1.5-1.1-2.7-2.6-2.7c-1.4,0-2.6,1.2-2.6,2.7C27.9,51.1,29,52.3,30.4,52.3"/>
		<path fill="#4E4E50" d="M37.6,45.6h3c1.5,0,2.5,1,2.5,2.5s-1,2.6-2.5,2.6H39v2.7h-1.4V45.6z M40.3,49.5c0.8,0,1.3-0.5,1.3-1.3
			c0-0.8-0.5-1.3-1.3-1.3H39v2.7H40.3z"/>
		<path fill="#4E4E50" d="M49.5,45.5c2.3,0,4,1.8,4,4c0,2.3-1.7,4.1-4,4.1c-2.3,0-4-1.8-4-4.1C45.5,47.2,47.2,45.5,49.5,45.5
			 M49.5,52.3c1.4,0,2.6-1.2,2.6-2.8c0-1.5-1.1-2.7-2.6-2.7c-1.4,0-2.6,1.2-2.6,2.7C46.9,51.1,48.1,52.3,49.5,52.3"/>
		<path fill="#4E4E50" d="M56.3,52.2c1-1.5,1.1-3.3,1.1-4.9v-1.7h4.9v6.6h0.9V55h-1.3v-1.5h-5.1V55h-1.3v-2.8H56.3z M60.9,52.2v-5.4
			h-2.1v0.6c0,1.5-0.2,3.5-1,4.8H60.9z"/>
		<path fill="#4E4E50" d="M69.6,45.5c1,0,2.1,0.3,2.9,1.1l-0.7,1.1c-0.6-0.5-1.4-0.8-2.1-0.8c-1.7,0-2.6,1.2-2.6,2.7
			c0,1.5,0.9,2.8,2.6,2.8c0.8,0,1.7-0.4,2.3-1l0.7,1C72,53,71,53.6,69.6,53.6c-2.5,0-4-1.8-4-4.1C65.6,47.2,67.2,45.5,69.6,45.5"/>
		<path fill="#4E4E50" d="M87.6,45.5c2.3,0,4,1.8,4,4c0,2.3-1.7,4.1-4,4.1c-2.3,0-4-1.8-4-4.1C83.6,47.2,85.3,45.5,87.6,45.5
			 M87.6,52.3c1.4,0,2.6-1.2,2.6-2.8c0-1.5-1.1-2.7-2.6-2.7c-1.4,0-2.6,1.2-2.6,2.7C85,51.1,86.2,52.3,87.6,52.3"/>
		<path fill="#4E4E50" d="M94.7,45.6h1.4v4.5c0,0.5-0.1,1.2-0.1,1.2h0c0,0,0.4-0.8,0.7-1.2l3-4.5h1.4v7.8h-1.4v-4.5
			c0-0.5,0.1-1.2,0.1-1.2h0c0,0-0.4,0.7-0.7,1.2l-3,4.5h-1.4V45.6z M96.2,43.8v-0.1h1.1v0.1c0,0.5,0.4,0.7,0.7,0.7
			c0.4,0,0.7-0.2,0.7-0.7v-0.1h1.1v0.1c0,1-0.8,1.5-1.8,1.5S96.2,44.7,96.2,43.8"/>
		<path fill="#4E4E50" d="M20.3,67.6c0.2,0.2,0.5,0.4,0.9,0.4c0.4,0,0.6-0.3,0.8-0.7l-3.1-6h1.6l1.7,3.5c0.3,0.5,0.4,1,0.4,1h0
			c0,0,0.1-0.5,0.3-1l1.3-3.5h1.5l-2.4,6.2c-0.3,0.8-0.9,1.8-2,1.8c-0.6,0-1.1-0.2-1.6-0.5L20.3,67.6z"/>
		<polygon fill="#4E4E50" points="28.3,61.3 29.7,61.3 29.7,64.6 33.3,64.6 33.3,61.3 34.7,61.3 34.7,69.1 33.3,69.1 33.3,65.8 
			29.7,65.8 29.7,69.1 28.3,69.1 		"/>
		<path fill="#4E4E50" d="M38.2,61.3h1.4v4.5c0,0.5-0.1,1.2-0.1,1.2h0c0,0,0.4-0.8,0.7-1.2l2.9-4.5h1.4v7.8h-1.4v-4.5
			c0-0.5,0.1-1.2,0.1-1.2h0c0,0-0.4,0.7-0.6,1.2l-3,4.5h-1.4V61.3z"/>
		<path fill="#4E4E50" d="M48.2,61.3H51c1.4,0,2.4,0.7,2.4,2c0,0.7-0.4,1.4-0.9,1.7v0c0.9,0.3,1.3,1,1.3,1.8c0,1.6-1.3,2.3-2.7,2.3
			h-2.8V61.3z M51,64.5c0.6,0,1-0.4,1-1c0-0.6-0.3-1-1-1h-1.4v2H51z M51.1,67.9c0.7,0,1.1-0.5,1.1-1.1c0-0.6-0.4-1.1-1.1-1.1h-1.5
			v2.3H51.1z"/>
		<polygon fill="#4E4E50" points="56.8,61.3 61.5,61.3 61.5,62.5 58.2,62.5 58.2,64.5 60.8,64.5 60.8,65.7 58.2,65.7 58.2,67.9 
			61.6,67.9 61.6,69.1 56.8,69.1 		"/>
		<path fill="#4E4E50" d="M64.7,61.3h3c1.5,0,2.5,1,2.5,2.5c0,1.5-1,2.6-2.5,2.6h-1.6v2.7h-1.4V61.3z M67.5,65.1
			c0.8,0,1.3-0.5,1.3-1.3c0-0.8-0.5-1.3-1.3-1.3h-1.4v2.7H67.5z"/>
		<path fill="#4E4E50" d="M76.6,61.1c1,0,2.1,0.3,2.9,1.1l-0.7,1.1c-0.5-0.5-1.4-0.8-2.1-0.8c-1.7,0-2.6,1.2-2.6,2.7
			c0,1.5,0.9,2.8,2.6,2.8c0.8,0,1.7-0.4,2.3-1l0.7,1c-0.7,0.7-1.7,1.3-3.1,1.3c-2.5,0-4-1.8-4-4.1C72.6,62.9,74.3,61.1,76.6,61.1"/>
		<path fill="#4E4E50" d="M82.6,61.3H84v4.5C84,66.2,84,67,84,67h0c0,0,0.4-0.8,0.7-1.2l2.9-4.5H89v7.8h-1.4v-4.5
			c0-0.5,0.1-1.2,0.1-1.2h0c0,0-0.4,0.7-0.6,1.2l-3,4.5h-1.4V61.3z"/>
		<polygon fill="#4E4E50" points="94.3,62.5 91.8,62.5 91.8,61.3 98.3,61.3 98.3,62.5 95.7,62.5 95.7,69.1 94.3,69.1 		"/>
		<polygon fill="#4E4E50" points="101,61.3 105.7,61.3 105.7,62.5 102.5,62.5 102.5,64.5 105.1,64.5 105.1,65.7 102.5,65.7 
			102.5,67.9 105.9,67.9 105.9,69.1 101,69.1 		"/>
		<polygon fill="#4E4E50" points="110.7,62.5 108.2,62.5 108.2,61.3 114.7,61.3 114.7,62.5 112.1,62.5 112.1,69.1 110.7,69.1 		"/>
		<path fill="#D9272E" d="M13.3,53.2c-4.6-5.1-7.4-11.9-7.4-19.3C5.8,18,18.7,5.1,34.6,5.1c12.1,0,22.5,7.5,26.7,18.1l2.9-1.2
			C59.5,10.4,48,2,34.6,2C17,2,2.7,16.3,2.7,33.9c0,8.2,3.1,15.7,8.2,21.4L13.3,53.2z"/>
	</g>
	<path fill="#A7A9AC" d="M19.2,74.1h1.5l1.5,3.9c0.2,0.5,0.4,1.1,0.4,1.1h0c0,0,0.2-0.7,0.4-1.1l1.5-3.9h1.5l0.6,7.8h-1.4L25,77.5
		c0-0.5,0-1.2,0-1.2h0c0,0-0.3,0.8-0.4,1.2l-1.3,3H22l-1.3-3c-0.2-0.5-0.4-1.2-0.4-1.2h0c0,0,0,0.7,0,1.2L20,81.9h-1.4L19.2,74.1z"
		/>
	<polygon fill="#A7A9AC" points="30,74.1 34.4,74.1 34.4,75.3 31.4,75.3 31.4,81.9 30,81.9 	"/>
	<polygon fill="#A7A9AC" points="37.2,74.1 43.5,74.1 43.5,81.9 42.1,81.9 42.1,75.3 38.6,75.3 38.6,81.9 37.2,81.9 	"/>
	<path fill="#A7A9AC" d="M47.5,80.4c0.2,0.2,0.5,0.4,0.9,0.4c0.4,0,0.6-0.3,0.8-0.7l-3.1-6h1.6l1.7,3.5c0.3,0.5,0.4,1,0.4,1h0
		c0,0,0.1-0.5,0.3-1l1.3-3.5h1.5l-2.4,6.2c-0.3,0.8-0.9,1.8-2,1.8c-0.6,0-1.1-0.2-1.6-0.5L47.5,80.4z"/>
</g>
</svg>
